<svg width="210" height="26" viewBox="0 0 210 26" fill="none" xmlns="http://www.w3.org/2000/svg">
<path d="M18.1162 15.2318C17.8395 15.0896 16.4608 14.4143 16.2043 14.3229C15.9479 14.2264 15.76 14.1807 15.5746 14.465C15.3867 14.7469 14.8535 15.374 14.686 15.5645C14.5235 15.7523 14.3584 15.7752 14.0817 15.6355C12.4363 14.8129 11.3572 14.168 10.2731 12.3068C9.98616 11.8117 10.56 11.8473 11.0957 10.7783C11.1871 10.5904 11.1414 10.4305 11.0703 10.2883C10.9992 10.1461 10.4406 8.76992 10.2071 8.20879C9.98108 7.66289 9.74748 7.73906 9.57737 7.72891C9.41487 7.71875 9.22952 7.71875 9.04163 7.71875C8.85373 7.71875 8.55159 7.78984 8.29514 8.0666C8.0387 8.34844 7.31506 9.02637 7.31506 10.4025C7.31506 11.7787 8.31799 13.1117 8.4551 13.2996C8.59729 13.4875 10.428 16.3109 13.2387 17.5271C15.016 18.2939 15.7117 18.36 16.6004 18.2279C17.1412 18.1467 18.2559 17.5525 18.4869 16.8949C18.718 16.2398 18.718 15.6787 18.6494 15.5619C18.5809 15.4375 18.393 15.3664 18.1162 15.2318Z" fill="white"/>
<path d="M23.4914 8.59219C22.9176 7.22871 22.0949 6.00488 21.0463 4.95371C19.9977 3.90508 18.7738 3.07988 17.4078 2.50859C16.0113 1.92207 14.5285 1.625 13 1.625H12.9492C11.4106 1.63262 9.92014 1.9373 8.51858 2.53652C7.16526 3.11543 5.95158 3.93809 4.91311 4.98672C3.87463 6.03535 3.05959 7.2541 2.49592 8.6125C1.91194 10.0191 1.6174 11.5146 1.62502 13.0533C1.63264 14.8154 2.05412 16.5648 2.84377 18.1289V21.9883C2.84377 22.6332 3.36682 23.1562 4.01174 23.1562H7.87365C9.43772 23.9459 11.1871 24.3674 12.9492 24.375H13.0026C14.5235 24.375 15.9987 24.0805 17.3875 23.5041C18.7459 22.9379 19.9672 22.1254 21.0133 21.0869C22.0619 20.0484 22.8871 18.8348 23.4635 17.4814C24.0627 16.0799 24.3674 14.5895 24.375 13.0508C24.3826 11.5045 24.083 10.0039 23.4914 8.59219ZM19.6549 19.7133C17.875 21.4754 15.5137 22.4453 13 22.4453H12.9569C11.4258 22.4377 9.9049 22.0568 8.56174 21.3408L8.34846 21.2266H4.77346V17.6516L4.6592 17.4383C3.94319 16.0951 3.56233 14.5742 3.55471 13.0432C3.54455 10.5117 4.51194 8.13516 6.28674 6.34512C8.05901 4.55508 10.428 3.56484 12.9594 3.55469H13.0026C14.2721 3.55469 15.5035 3.80098 16.6639 4.28848C17.7963 4.76328 18.8119 5.44629 19.6854 6.31973C20.5563 7.19062 21.2418 8.20879 21.7166 9.34121C22.2092 10.5143 22.4555 11.7584 22.4504 13.0432C22.4352 15.5721 21.4424 17.941 19.6549 19.7133Z" fill="white"/>
<path d="M59 2C56.0149 2 55.6395 2.01375 54.4666 2.066C53.2938 2.121 52.4949 2.30525 51.795 2.5775C51.0609 2.85363 50.3959 3.28676 49.8466 3.84663C49.2871 4.39621 48.854 5.06108 48.5775 5.795C48.3052 6.4935 48.1196 7.29375 48.066 8.4625C48.0138 9.63812 48 10.0121 48 13.0014C48 15.9879 48.0138 16.3619 48.066 17.5347C48.121 18.7063 48.3052 19.5051 48.5775 20.205C48.8594 20.9282 49.2348 21.5415 49.8466 22.1534C50.4571 22.7652 51.0704 23.142 51.7936 23.4225C52.4949 23.6947 53.2924 23.8804 54.4639 23.934C55.6381 23.9862 56.0121 24 59 24C61.9879 24 62.3605 23.9862 63.5347 23.934C64.7049 23.879 65.5065 23.6947 66.2064 23.4225C66.94 23.1462 67.6045 22.7131 68.1534 22.1534C68.7652 21.5415 69.1406 20.9282 69.4225 20.205C69.6934 19.5051 69.879 18.7063 69.934 17.5347C69.9862 16.3619 70 15.9879 70 13C70 10.0121 69.9862 9.63813 69.934 8.46388C69.879 7.29375 69.6934 6.4935 69.4225 5.795C69.146 5.06106 68.7129 4.39618 68.1534 3.84663C67.6042 3.28655 66.9392 2.85339 66.205 2.5775C65.5037 2.30525 64.7035 2.11963 63.5334 2.066C62.3591 2.01375 61.9865 2 58.9973 2H59.0014H59ZM58.0141 3.98275H59.0014C61.9384 3.98275 62.2863 3.99238 63.4454 4.046C64.5179 4.09413 65.1009 4.27425 65.4886 4.42412C66.0015 4.6235 66.3686 4.86275 66.7536 5.24775C67.1386 5.63275 67.3765 5.9985 67.5759 6.51275C67.7271 6.89913 67.9059 7.48213 67.954 8.55463C68.0076 9.71375 68.0186 10.0616 68.0186 12.9973C68.0186 15.9329 68.0076 16.2821 67.954 17.4412C67.9059 18.5138 67.7257 19.0954 67.5759 19.4831C67.3995 19.9607 67.118 20.3926 66.7522 20.7467C66.3672 21.1318 66.0015 21.3696 65.4873 21.569C65.1023 21.7203 64.5192 21.899 63.4454 21.9485C62.2863 22.0007 61.9384 22.0131 59.0014 22.0131C56.0644 22.0131 55.7151 22.0007 54.556 21.9485C53.4835 21.899 52.9019 21.7203 52.5141 21.569C52.0363 21.3929 51.604 21.1119 51.2491 20.7467C50.883 20.392 50.6011 19.9598 50.4241 19.4818C50.2743 19.0954 50.0941 18.5124 50.046 17.4399C49.9938 16.2808 49.9828 15.9329 49.9828 12.9945C49.9828 10.0575 49.9938 9.711 50.046 8.55187C50.0955 7.47937 50.2743 6.89638 50.4255 6.50863C50.6249 5.99575 50.8641 5.62862 51.2491 5.24362C51.6341 4.85862 51.9999 4.62075 52.5141 4.42138C52.9019 4.27013 53.4835 4.09138 54.556 4.04188C55.5708 3.99513 55.964 3.98138 58.0141 3.98V3.98275ZM64.8726 5.80875C64.6993 5.80875 64.5276 5.84289 64.3675 5.90923C64.2073 5.97557 64.0618 6.0728 63.9392 6.19537C63.8167 6.31794 63.7194 6.46346 63.6531 6.62361C63.5868 6.78376 63.5526 6.95541 63.5526 7.12875C63.5526 7.30209 63.5868 7.47374 63.6531 7.63389C63.7194 7.79404 63.8167 7.93956 63.9392 8.06213C64.0618 8.1847 64.2073 8.28193 64.3675 8.34827C64.5276 8.41461 64.6993 8.44875 64.8726 8.44875C65.2227 8.44875 65.5585 8.30968 65.806 8.06213C66.0536 7.81458 66.1926 7.47884 66.1926 7.12875C66.1926 6.77866 66.0536 6.44292 65.806 6.19537C65.5585 5.94782 65.2227 5.80875 64.8726 5.80875ZM59.0014 7.3515C58.2521 7.33981 57.508 7.47729 56.8123 7.75594C56.1167 8.0346 55.4835 8.44885 54.9495 8.97458C54.4155 9.50032 53.9914 10.127 53.7019 10.8182C53.4124 11.5094 53.2634 12.2513 53.2634 13.0007C53.2634 13.7501 53.4124 14.4919 53.7019 15.1831C53.9914 15.8743 54.4155 16.5011 54.9495 17.0268C55.4835 17.5525 56.1167 17.9668 56.8123 18.2454C57.508 18.5241 58.2521 18.6616 59.0014 18.6499C60.4844 18.6267 61.8988 18.0214 62.9393 16.9645C63.9799 15.9076 64.5631 14.4839 64.5631 13.0007C64.5631 11.5175 63.9799 10.0938 62.9393 9.03691C61.8988 7.97999 60.4844 7.37464 59.0014 7.3515ZM59.0014 9.33288C59.974 9.33288 60.9067 9.71923 61.5944 10.407C62.2821 11.0947 62.6685 12.0274 62.6685 13C62.6685 13.9726 62.2821 14.9053 61.5944 15.593C60.9067 16.2808 59.974 16.6671 59.0014 16.6671C58.0288 16.6671 57.096 16.2808 56.4083 15.593C55.7206 14.9053 55.3342 13.9726 55.3342 13C55.3342 12.0274 55.7206 11.0947 56.4083 10.407C57.096 9.71923 58.0288 9.33288 59.0014 9.33288Z" fill="white"/>
<path d="M116.375 12.9291C116.375 12.8732 116.375 12.8097 116.372 12.7361C116.37 12.5304 116.365 12.2994 116.36 12.0531C116.339 11.3447 116.304 10.6388 116.248 9.97358C116.172 9.05698 116.06 8.29272 115.908 7.7189C115.747 7.12006 115.432 6.5739 114.994 6.13502C114.556 5.69614 114.01 5.3799 113.412 5.21792C112.693 5.02495 111.287 4.90562 109.306 4.83198C108.364 4.79644 107.356 4.77358 106.348 4.76089C105.995 4.75581 105.668 4.75327 105.373 4.75073H104.627C104.332 4.75327 104.005 4.75581 103.652 4.76089C102.644 4.77358 101.636 4.79644 100.694 4.83198C98.7133 4.90815 97.3041 5.02749 96.5881 5.21792C95.9894 5.3795 95.4437 5.69561 95.0056 6.13455C94.5675 6.57349 94.2526 7.11986 94.0922 7.7189C93.9373 8.29272 93.8281 9.05698 93.752 9.97358C93.6961 10.6388 93.6605 11.3447 93.6402 12.0531C93.6326 12.2994 93.6301 12.5304 93.6275 12.7361C93.6275 12.8097 93.625 12.8732 93.625 12.9291V13.0712C93.625 13.1271 93.625 13.1906 93.6275 13.2642C93.6301 13.4699 93.6352 13.7009 93.6402 13.9472C93.6605 14.6556 93.6961 15.3615 93.752 16.0267C93.8281 16.9433 93.9398 17.7076 94.0922 18.2814C94.4172 19.4976 95.3719 20.4574 96.5881 20.7824C97.3041 20.9753 98.7133 21.0947 100.694 21.1683C101.636 21.2039 102.644 21.2267 103.652 21.2394C104.005 21.2445 104.332 21.247 104.627 21.2496H105.373C105.668 21.247 105.995 21.2445 106.348 21.2394C107.356 21.2267 108.364 21.2039 109.306 21.1683C111.287 21.0921 112.696 20.9728 113.412 20.7824C114.628 20.4574 115.583 19.5001 115.908 18.2814C116.063 17.7076 116.172 16.9433 116.248 16.0267C116.304 15.3615 116.339 14.6556 116.36 13.9472C116.367 13.7009 116.37 13.4699 116.372 13.2642C116.372 13.1906 116.375 13.1271 116.375 13.0712V12.9291ZM114.547 13.0611C114.547 13.1144 114.547 13.1728 114.544 13.2414C114.542 13.4394 114.537 13.6578 114.532 13.8939C114.514 14.5693 114.478 15.2447 114.425 15.8718C114.356 16.6894 114.26 17.3597 114.141 17.8091C113.983 18.3957 113.521 18.8603 112.937 19.0152C112.404 19.1574 111.061 19.2716 109.235 19.3402C108.311 19.3757 107.316 19.3986 106.323 19.4113C105.975 19.4164 105.653 19.4189 105.363 19.4189H104.637L103.677 19.4113C102.684 19.3986 101.692 19.3757 100.765 19.3402C98.9393 19.2691 97.5936 19.1574 97.0629 19.0152C96.4789 18.8578 96.0168 18.3957 95.8594 17.8091C95.74 17.3597 95.6436 16.6894 95.575 15.8718C95.5217 15.2447 95.4887 14.5693 95.4684 13.8939C95.4607 13.6578 95.4582 13.4369 95.4557 13.2414C95.4557 13.1728 95.4531 13.1119 95.4531 13.0611V12.9392C95.4531 12.8859 95.4531 12.8275 95.4557 12.7589C95.4582 12.5609 95.4633 12.3425 95.4684 12.1064C95.4861 11.431 95.5217 10.7556 95.575 10.1285C95.6436 9.31089 95.74 8.64057 95.8594 8.19116C96.0168 7.60464 96.4789 7.13999 97.0629 6.98511C97.5961 6.84292 98.9393 6.72866 100.765 6.66011C101.689 6.62456 102.684 6.60171 103.677 6.58901C104.025 6.58393 104.347 6.5814 104.637 6.5814H105.363L106.323 6.58901C107.316 6.60171 108.308 6.62456 109.235 6.66011C111.061 6.7312 112.406 6.84292 112.937 6.98511C113.521 7.14253 113.983 7.60464 114.141 8.19116C114.26 8.64057 114.356 9.31089 114.425 10.1285C114.478 10.7556 114.511 11.431 114.532 12.1064C114.539 12.3425 114.542 12.5634 114.544 12.7589C114.544 12.8275 114.547 12.8884 114.547 12.9392V13.0611ZM102.74 16.4025L108.631 12.9748L102.74 9.5978V16.4025Z" fill="white"/>
<path d="M157.5 2.1665H154.25C152.813 2.1665 151.436 2.73719 150.42 3.75301C149.404 4.76883 148.833 6.14658 148.833 7.58317V10.8332H145.583V15.1665H148.833V23.8332H153.167V15.1665H156.417L157.5 10.8332H153.167V7.58317C153.167 7.29585 153.281 7.0203 153.484 6.81714C153.687 6.61397 153.963 6.49984 154.25 6.49984H157.5V2.1665Z" stroke="white" stroke-width="2" stroke-linecap="round" stroke-linejoin="round"/>
<path d="M205.182 3.24682C204.921 3.26579 204.665 3.32698 204.424 3.428H204.421C204.189 3.51982 203.088 3.98294 201.414 4.68494L195.416 7.211C191.113 9.02288 186.882 10.8071 186.882 10.8071L186.932 10.7876C186.932 10.7876 186.641 10.8835 186.336 11.0923C186.148 11.2121 185.986 11.3688 185.86 11.553C185.71 11.7724 185.59 12.1079 185.635 12.4549C185.708 13.0415 186.088 13.3933 186.361 13.5875C186.637 13.7841 186.901 13.8759 186.901 13.8759H186.907L190.875 15.2125C191.052 15.7837 192.084 19.1734 192.331 19.9543C192.478 20.4206 192.62 20.7123 192.798 20.9349C192.884 21.0487 192.985 21.1438 193.106 21.2201C193.169 21.2567 193.236 21.2857 193.306 21.3063L193.265 21.2965C193.277 21.2998 193.287 21.3095 193.296 21.3128C193.328 21.3217 193.35 21.3249 193.392 21.3314C194.02 21.5216 194.524 21.1316 194.524 21.1316L194.553 21.1088L196.895 18.976L200.821 21.9879L200.911 22.0261C201.729 22.3853 202.557 22.1854 202.995 21.8328C203.437 21.4777 203.608 21.0235 203.608 21.0235L203.636 20.9504L206.67 5.40807C206.756 5.02457 206.778 4.66544 206.683 4.31688C206.585 3.96411 206.359 3.66071 206.049 3.46619C205.788 3.30785 205.486 3.23142 205.182 3.24682ZM205.1 4.91244C205.097 4.96363 205.106 4.95794 205.084 5.05625V5.06519L202.078 20.4458C202.065 20.4678 202.043 20.5157 201.983 20.5636C201.92 20.614 201.869 20.6457 201.605 20.5409L196.803 16.8594L193.903 19.5033L194.512 15.6114L202.358 8.29894C202.681 7.99832 202.573 7.93494 202.573 7.93494C202.596 7.56607 202.085 7.82688 202.085 7.82688L192.192 13.9556L192.188 13.9393L187.447 12.3428V12.3395L187.434 12.3371C187.443 12.3343 187.451 12.331 187.459 12.3273L187.485 12.3143L187.51 12.3054C187.51 12.3054 191.744 10.5211 196.048 8.70925C198.202 7.80169 200.373 6.88763 202.043 6.18238C203.713 5.48119 204.947 4.96688 205.017 4.93925C205.084 4.91325 205.052 4.91325 205.1 4.91325V4.91244Z" fill="white"/>
</svg>
