<svg width="26" height="26" fill="none" xmlns="http://www.w3.org/2000/svg"><path d="M7.75 20.5A2.497 2.497 0 0 0 5.263 23c0 1.375 1.112 2.5 2.487 2.5s2.5-1.125 2.5-2.5-1.125-2.5-2.5-2.5ZM.25.5V3h2.5l4.5 9.488-1.688 3.062c-.2.35-.312.762-.312 1.2 0 1.375 1.125 2.5 2.5 2.5h15v-2.5H8.275a.31.31 0 0 1-.313-.313l.038-.15 1.125-2.037h9.313c.937 0 1.762-.512 2.187-1.287L25.1 4.85A1.254 1.254 0 0 0 24 3H5.512L4.338.5H.25Zm20 20a2.497 2.497 0 0 0-2.488 2.5c0 1.375 1.113 2.5 2.488 2.5s2.5-1.125 2.5-2.5-1.125-2.5-2.5-2.5Z" fill="#2D2D2D"/></svg>