<svg width="14" height="14" fill="none" xmlns="http://www.w3.org/2000/svg"><path d="M11.083 7.925V5.833a4.087 4.087 0 0 0-3-3.933A1.16 1.16 0 0 0 7 1.167a1.16 1.16 0 0 0-1.082.733 4.087 4.087 0 0 0-3.001 3.933v2.092l-.996.996a.58.58 0 0 0-.171.412V10.5a.583.583 0 0 0 .583.583h9.334a.583.583 0 0 0 .583-.583V9.333a.58.58 0 0 0-.17-.412l-.997-.996Zm0 1.992H2.917v-.342l.995-.996a.581.581 0 0 0 .171-.412V5.833A2.92 2.92 0 0 1 7 2.917a2.92 2.92 0 0 1 2.917 2.916v2.334a.58.58 0 0 0 .17.412l.996.996v.342ZM7 12.833a1.74 1.74 0 0 0 1.644-1.166H5.356A1.738 1.738 0 0 0 7 12.833Z" fill="#3670C7"/></svg>